opsz8_wght1000_wdth125.ufo
<glyph name="zero" format="2">
	<unicode hex="0030"/>
	<advance width="1228"/>
	<outline>
		<contour>
			<point x="73.0014648438" y="743.3229980469" type="qcurve" smooth="yes"/>
			<point x="73.0014648438" y="1082.1228027344"/>
			<point x="369.030456543" y="1500.0239257812"/>
			<point x="617.7318115234" y="1501.0239257812" type="qcurve" smooth="yes"/>
			<point x="861.8059082031" y="1502.0239257812"/>
			<point x="1155.389465332" y="1087.05078125"/>
			<point x="1155.389465332" y="746.2509765625" type="qcurve" smooth="yes"/>
			<point x="1155.389465332" y="405.1630859375"/>
			<point x="874.9741210938" y="-29.5219726562"/>
			<point x="624.8045043945" y="-29.5219726562" type="qcurve" smooth="yes"/>
			<point x="373.6577148438" y="-29.5219726562"/>
			<point x="73.0014648438" y="404.8439941406"/>
		</contour>
		<contour>
			<point x="284.6508789062" y="755.8581542969" type="qcurve" smooth="yes"/>
			<point x="259" y="481"/>
			<point x="438.6124267578" y="81.7966918945"/>
			<point x="609.7318115234" y="81.7966918945" type="qcurve" smooth="yes"/>
			<point x="780.8511962891" y="81.7966918945"/>
			<point x="917" y="447"/>
			<point x="943.7400512695" y="762.3229980469" type="qcurve" smooth="yes"/>
			<point x="917" y="1027"/>
			<point x="770.9238891602" y="1384.5625610352"/>
			<point x="609.8045043945" y="1384.5625610352" type="qcurve" smooth="yes"/>
			<point x="448.6851196289" y="1384.5625610352"/>
			<point x="259" y="1060"/>
		</contour>
	</outline>
</glyph>
<glyph name="one" format="2">
	<unicode hex="0031"/>
	<advance width="1042"/>
	<outline>
		<contour>
			<point x="203.4909667969" y="0" type="line"/>
			<point x="203.4909667969" y="93.9951171875" type="line"/>
			<point x="461.4970703125" y="128.9951171875" type="line"/>
			<point x="461.4970703125" y="747.5180664062" type="line"/>
			<point x="459.4970703125" y="1309.0704345703" type="line"/>
			<point x="63.5008544922" y="1350.5338134766" type="line"/>
			<point x="63.5008544922" y="1464.9946289062" type="line"/>
			<point x="609.6604003906" y="1480.53125" type="line"/>
			<point x="641.6604003906" y="1445.53125" type="line"/>
			<point x="635.6604003906" y="747.5180664062" type="line"/>
			<point x="635.6604003906" y="128.9951171875" type="line"/>
			<point x="883.6665039062" y="93.9951171875" type="line"/>
			<point x="883.6665039062" y="0" type="line"/>
		</contour>
	</outline>
</glyph>
<glyph name="two" format="2">
	<unicode hex="0032"/>
	<advance width="1176"/>
	<outline>
		<contour>
			<point x="14.0014648438" y="0" type="line"/>
			<point x="14.0014648438" y="-35.9781494141" type="line"/>
			<point x="17.9927978516" y="65.7388305664"/>
			<point x="281.5477905273" y="358.4693603516"/>
			<point x="526.0916137695" y="516.6137695312" type="qcurve" smooth="yes"/>
			<point x="759.0283813477" y="670.7230224609"/>
			<point x="900.8572998047" y="913.5108032227"/>
			<point x="900.8572998047" y="1062.4468383789" type="qcurve" smooth="yes"/>
			<point x="900.8572998047" y="1177.3663330078"/>
			<point x="768.2827758789" y="1279.305480957"/>
			<point x="629.6564331055" y="1279.305480957" type="qcurve" smooth="yes"/>
			<point x="459.6256103516" y="1279.305480957"/>
			<point x="217.7282104492" y="1189.1033325195"/>
			<point x="140.0014648438" y="1137.3898925781" type="qcurve"/>
			<point x="43.0014648438" y="1318.9110107422" type="line"/>
			<point x="129.1688232422" y="1358.7866210938"/>
			<point x="407.1190185547" y="1502.0239257812"/>
			<point x="683.0772705078" y="1502.0239257812" type="qcurve" smooth="yes"/>
			<point x="822.8217163086" y="1502.0239257812"/>
			<point x="1099.1610107422" y="1283.3129272461"/>
			<point x="1104.1610107422" y="1066.7463989258" type="qcurve" smooth="yes"/>
			<point x="1110.1610107422" y="828.9107055664"/>
			<point x="865.844543457" y="522.7408447266"/>
			<point x="655.9537353516" y="419.3250732422" type="qcurve" smooth="yes"/>
			<point x="401.2622680664" y="290.8522338867"/>
			<point x="179.3046875" y="128.5654296875"/>
			<point x="158.9533081055" y="95.1614379883" type="qcurve"/>
			<point x="156.9533081055" y="80.3884277344" type="line"/>
			<point x="1111.4338989258" y="80.3884277344" type="line"/>
			<point x="1111.4338989258" y="0" type="line"/>
		</contour>
	</outline>
</glyph>
<glyph name="three" format="2">
	<unicode hex="0033"/>
	<advance width="1130"/>
	<outline>
		<contour>
			<point x="-61.9985351562" y="144" type="qcurve"/>
			<point x="48.1511230469" y="284.8028564453" type="line"/>
			<point x="117.8228759766" y="220.2426757812"/>
			<point x="310.212097168" y="127.5796508789"/>
			<point x="450.3732910156" y="127.5796508789" type="qcurve" smooth="yes"/>
			<point x="581.5394897461" y="127.5796508789"/>
			<point x="793.1231689453" y="262.8600463867"/>
			<point x="793.1231689453" y="417.2305297852" type="qcurve" smooth="yes"/>
			<point x="793.1231689453" y="567.2575073242"/>
			<point x="603.7087402344" y="703.2794799805"/>
			<point x="341.5850219727" y="703.2794799805" type="qcurve" smooth="yes"/>
			<point x="213.0357055664" y="703.2794799805" type="line"/>
			<point x="189.3637695312" y="872.9520263672" type="line"/>
			<point x="359.8394165039" y="878.6532592773" type="line" smooth="yes"/>
			<point x="569.5913085938" y="886.1532592773"/>
			<point x="767.0463256836" y="1013.6011962891"/>
			<point x="767.0463256836" y="1129.3809204102" type="qcurve" smooth="yes"/>
			<point x="767.0463256836" y="1230.2666625977"/>
			<point x="643.3941040039" y="1308.1857910156"/>
			<point x="518.6630859375" y="1308.1857910156" type="qcurve" smooth="yes"/>
			<point x="369.0115966797" y="1308.1857910156"/>
			<point x="175.4443969727" y="1231.3940429688"/>
			<point x="120.5093994141" y="1182.4403076172" type="qcurve"/>
			<point x="-0.8532714844" y="1343.1488037109" type="line"/>
			<point x="48.7196655273" y="1388.3494262695"/>
			<point x="343.5244140625" y="1499.8798828125"/>
			<point x="563.9110717773" y="1499.8798828125" type="qcurve" smooth="yes"/>
			<point x="787.7168579102" y="1499.8798828125"/>
			<point x="1024.8361206055" y="1322.0405273438"/>
			<point x="1024.8361206055" y="1171.8117675781" type="qcurve" smooth="yes"/>
			<point x="1024.8361206055" y="1009.6123046875"/>
			<point x="878.8316040039" y="840.9318847656"/>
			<point x="683.3452148438" y="817.2770996094" type="qcurve"/>
			<point x="683.3452148438" y="810.4211425781" type="line"/>
			<point x="882.8316040039" y="790.2138671875"/>
			<point x="1066.690612793" y="627.2299804688"/>
			<point x="1066.690612793" y="459.9831542969" type="qcurve" smooth="yes"/>
			<point x="1066.690612793" y="251.4548339844"/>
			<point x="721.453125" y="-25.0244140625"/>
			<point x="460.3295898438" y="-25.0244140625" type="qcurve" smooth="yes"/>
			<point x="248.3326416016" y="-25.0244140625"/>
			<point x="-25.8204956055" y="98.2748413086"/>
		</contour>
	</outline>
</glyph>
<glyph name="four" format="2">
	<unicode hex="0034"/>
	<advance width="1399"/>
	<outline>
		<contour>
			<point x="-37.9985351562" y="569.5263671875" type="line"/>
			<point x="937.6582641602" y="1487.2155761719" type="line"/>
			<point x="1279.9192504883" y="1489.2155761719" type="line"/>
			<point x="1059.8215942383" y="1404.2155761719" type="line"/>
			<point x="1040.8215942383" y="517.5263671875" type="line"/>
			<point x="1042.8215942383" y="128.9951171875" type="line"/>
			<point x="1242.9158325195" y="93.9951171875" type="line"/>
			<point x="1242.9158325195" y="0" type="line"/>
			<point x="610.7463989258" y="0" type="line"/>
			<point x="610.7463989258" y="93.9951171875" type="line"/>
			<point x="883.6582641602" y="128.9951171875" type="line"/>
			<point x="883.6582641602" y="515.5263671875" type="line"/>
			<point x="877.6582641602" y="1227.1239624023" type="line"/>
			<point x="222.8555297852" y="569.3089599609" type="line"/>
			<point x="224.8555297852" y="550.3089599609" type="line"/>
			<point x="1387.5251464844" y="551.8728027344" type="line"/>
			<point x="1387.5251464844" y="434.4397583008" type="line"/>
			<point x="-9.9985351562" y="432.4397583008" type="line"/>
		</contour>
	</outline>
</glyph>
<glyph name="five" format="2">
	<unicode hex="0035"/>
	<advance width="1132"/>
	<outline>
		<contour>
			<point x="-21.9985351562" y="153" type="qcurve"/>
			<point x="81.3649291992" y="303.6172485352" type="line"/>
			<point x="176.8229370117" y="236.2852783203"/>
			<point x="400.3236083984" y="133.264831543"/>
			<point x="553.9114990234" y="133.264831543" type="qcurve" smooth="yes"/>
			<point x="714.3497924805" y="133.264831543"/>
			<point x="863.8961181641" y="272.8891601562"/>
			<point x="863.8961181641" y="429.0111694336" type="qcurve" smooth="yes"/>
			<point x="863.8961181641" y="571.0888671875"/>
			<point x="639.787109375" y="721.1963500977"/>
			<point x="382.3788452148" y="716.1963500977" type="qcurve" smooth="yes"/>
			<point x="263.272644043" y="714.1963500977" type="line"/>
			<point x="177.272644043" y="760.4931640625" type="line"/>
			<point x="223.272644043" y="1450.1469726562" type="line"/>
			<point x="258.272644043" y="1483.1469726562" type="line"/>
			<point x="1006.0233764648" y="1483.1469726562" type="line"/>
			<point x="1014.5628662109" y="1354.4406738281" type="line"/>
			<point x="376.3536987305" y="1354.4406738281" type="line"/>
			<point x="357.7251586914" y="1336.4406738281" type="line"/>
			<point x="311.7617797852" y="843.2133789062" type="line"/>
			<point x="476.3037719727" y="935.78125" type="line"/>
			<point x="610.8304443359" y="977.7490844727"/>
			<point x="1086.0408935547" y="758.6138305664"/>
			<point x="1086.0408935547" y="529.7622070312" type="qcurve" smooth="yes"/>
			<point x="1086.0408935547" y="279.3107910156"/>
			<point x="818.0538330078" y="-22.0244140625"/>
			<point x="622.0285644531" y="-25.0244140625" type="qcurve" smooth="yes"/>
			<point x="347.2295532227" y="-27.0244140625"/>
			<point x="24.9897460938" y="106.2189331055"/>
		</contour>
	</outline>
</glyph>
<glyph name="six" format="2">
	<unicode hex="0036"/>
	<advance width="1102"/>
	<outline>
		<contour>
			<point x="72.0014648438" y="640.7258300781" type="qcurve" smooth="yes"/>
			<point x="72.0014648438" y="1038.2731323242"/>
			<point x="509.8386230469" y="1542.6844482422"/>
			<point x="886.9295654297" y="1579.53125" type="qcurve"/>
			<point x="942.2929077148" y="1400.0183105469" type="line"/>
			<point x="588.0544433594" y="1377.8532714844"/>
			<point x="280.9873046875" y="983.0848388672"/>
			<point x="280.9873046875" y="603.7258300781" type="qcurve" smooth="yes"/>
			<point x="280.9873046875" y="412.9867553711"/>
			<point x="454.9779052734" y="106.4764404297"/>
			<point x="608.412109375" y="106.4764404297" type="qcurve" smooth="yes"/>
			<point x="761.4171142578" y="106.4764404297"/>
			<point x="889.7976074219" y="357.202331543"/>
			<point x="890.1118774414" y="486.8485107422" type="qcurve" smooth="yes"/>
			<point x="890.4261474609" y="620.2166137695"/>
			<point x="778.3861083984" y="804.2171630859"/>
			<point x="671.2667236328" y="804.2171630859" type="qcurve" smooth="yes"/>
			<point x="611.1051025391" y="804.2171630859"/>
			<point x="511.0773925781" y="763.653137207"/>
			<point x="475.4741210938" y="735.5052490234" type="qcurve"/>
			<point x="437.6181640625" y="866.7036132812" type="line"/>
			<point x="485.3251342773" y="919.7462158203"/>
			<point x="626.024597168" y="1005.7686767578"/>
			<point x="695.6875" y="1005.7686767578" type="qcurve" smooth="yes"/>
			<point x="869.7367553711" y="1005.7686767578"/>
			<point x="1078.910949707" y="776.93359375"/>
			<point x="1078.910949707" y="565.9247436523" type="qcurve" smooth="yes"/>
			<point x="1078.910949707" y="303.3041992188"/>
			<point x="802.2332763672" y="-23.5268554688"/>
			<point x="589.6236572266" y="-23.5268554688" type="qcurve" smooth="yes"/>
			<point x="418.3324584961" y="-23.5268554688"/>
			<point x="72.0014648438" y="329.3820800781"/>
		</contour>
	</outline>
</glyph>
<glyph name="seven" format="2">
	<unicode hex="0037"/>
	<advance width="1292"/>
	<outline>
		<contour>
			<point x="20.8905639648" y="1147.4166259766" type="line"/>
			<point x="30.5432128906" y="1483.1469726562" type="line"/>
			<point x="1342.4638061523" y="1483.1469726562" type="line"/>
			<point x="1342.4638061523" y="1430.5043945312" type="line"/>
			<point x="903.0349731445" y="645.7680664062" type="line"/>
			<point x="537.3522338867" y="-23.0439453125" type="line"/>
			<point x="355.4381713867" y="-23.0439453125" type="line"/>
			<point x="355.4381713867" y="58.9560546875" type="line"/>
			<point x="831.6077270508" y="779.7258300781" type="line"/>
			<point x="1208.2746582031" y="1355.599609375" type="line"/>
			<point x="1179.53125" y="1381.4128417969" type="line"/>
			<point x="190.0036621094" y="1381.4128417969" type="line"/>
			<point x="136.6196289062" y="1147.4166259766" type="line"/>
		</contour>
	</outline>
</glyph>
<glyph name="eight" format="2">
	<unicode hex="0038"/>
	<advance width="1248"/>
	<outline>
		<contour>
			<point x="61.0014648438" y="384.7683105469" type="qcurve" smooth="yes"/>
			<point x="61.0014648438" y="575.0791625977"/>
			<point x="330.7538452148" y="807.427734375"/>
			<point x="657.0020751953" y="875.1146240234" type="qcurve"/>
			<point x="776.2919921875" y="816.0333862305" type="line"/>
			<point x="593.7996826172" y="733.7991943359"/>
			<point x="489.9083862305" y="524.7907714844"/>
			<point x="489.9083862305" y="376.6760253906" type="qcurve" smooth="yes"/>
			<point x="489.9083862305" y="253.494934082"/>
			<point x="550.7182006836" y="94.0238037109"/>
			<point x="648.9564819336" y="94.0238037109" type="qcurve" smooth="yes"/>
			<point x="798.1298217773" y="94.0238037109"/>
			<point x="1000.0263061523" y="287.5570678711"/>
			<point x="1000.0263061523" y="436.7003173828" type="qcurve" smooth="yes"/>
			<point x="1000.0263061523" y="559.1499633789"/>
			<point x="977.1890869141" y="689.3033447266"/>
			<point x="746.5432739258" y="771.6604003906" type="qcurve" smooth="yes"/>
			<point x="469.5654296875" y="877.4253540039"/>
			<point x="161.7308349609" y="1055.4884643555"/>
			<point x="161.7308349609" y="1231.3315429688" type="qcurve" smooth="yes"/>
			<point x="161.7308349609" y="1354.2451171875"/>
			<point x="363.2689208984" y="1504.087890625"/>
			<point x="552.7454833984" y="1504.087890625" type="qcurve" smooth="yes"/>
			<point x="789.7108154297" y="1504.087890625"/>
			<point x="1072.6459350586" y="1332.7319335938"/>
			<point x="1072.6459350586" y="1182.4619140625" type="qcurve" smooth="yes"/>
			<point x="1072.6459350586" y="1073.66796875"/>
			<point x="860.1054077148" y="857.7316894531"/>
			<point x="631.0196533203" y="773.5390625" type="qcurve"/>
			<point x="500.4621582031" y="825.537109375" type="line"/>
			<point x="693.5540161133" y="951.8205566406"/>
			<point x="730.5960693359" y="1098.1947021484"/>
			<point x="730.5960693359" y="1180.9589233398" type="qcurve" smooth="yes"/>
			<point x="730.5960693359" y="1258.2184448242"/>
			<point x="643.0838012695" y="1345.1582641602"/>
			<point x="547.3863525391" y="1345.1582641602" type="qcurve" smooth="yes"/>
			<point x="460.7937011719" y="1345.1582641602"/>
			<point x="287.1489257812" y="1218.6339111328"/>
			<point x="287.1489257812" y="1139.6283569336" type="qcurve" smooth="yes"/>
			<point x="287.1489257812" y="1020.6043701172"/>
			<point x="550.5747680664" y="906.9663696289"/>
			<point x="781.0439453125" y="820.2466430664" type="qcurve" smooth="yes"/>
			<point x="895.8187255859" y="776.1032104492"/>
			<point x="1187.5948486328" y="581.8098144531"/>
			<point x="1187.5948486328" y="403.1652832031" type="qcurve" smooth="yes"/>
			<point x="1187.5948486328" y="243.7592773438"/>
			<point x="942.7888183594" y="-24.5219726562"/>
			<point x="639.6148681641" y="-24.5219726562" type="qcurve" smooth="yes"/>
			<point x="324.7197875977" y="-24.5219726562"/>
			<point x="61.0014648438" y="207.2175292969"/>
		</contour>
	</outline>
</glyph>
<glyph name="nine" format="2">
	<unicode hex="0039"/>
	<advance width="1102"/>
	<outline>
		<contour>
			<point x="23.0014648438" y="930.5942382812" type="qcurve" smooth="yes"/>
			<point x="23.0014648438" y="1163.7001953125"/>
			<point x="307.1750488281" y="1501.703125"/>
			<point x="515.014831543" y="1501.703125" type="qcurve" smooth="yes"/>
			<point x="734.0370483398" y="1501.703125"/>
			<point x="1029.6928710938" y="1150.0218505859"/>
			<point x="1029.6928710938" y="836.2785644531" type="qcurve" smooth="yes"/>
			<point x="1029.6928710938" y="409.6082763672"/>
			<point x="617.907409668" y="-64.9057617188"/>
			<point x="260.1011962891" y="-102.0426635742" type="qcurve"/>
			<point x="204.8832397461" y="76.5267944336" type="line"/>
			<point x="556.8894042969" y="88.4010620117"/>
			<point x="808.8208007812" y="495.4188842773"/>
			<point x="808.8208007812" y="843.2065429688" type="qcurve" smooth="yes"/>
			<point x="808.8208007812" y="1091.7900390625"/>
			<point x="644.0672607422" y="1387.7276000977"/>
			<point x="500.7829589844" y="1387.7276000977" type="qcurve" smooth="yes"/>
			<point x="329.7712402344" y="1387.7276000977"/>
			<point x="199.9143066406" y="1096.4904174805"/>
			<point x="199.9143066406" y="969.0131835938" type="qcurve" smooth="yes"/>
			<point x="199.9143066406" y="822.4940185547"/>
			<point x="300.2736816406" y="670.7232055664"/>
			<point x="411.2987670898" y="670.7232055664" type="qcurve" smooth="yes"/>
			<point x="439.2178955078" y="670.7232055664"/>
			<point x="508.2435913086" y="692.6187744141"/>
			<point x="529.9998779297" y="704.6450805664" type="qcurve"/>
			<point x="551.0718994141" y="559.291809082" type="line"/>
			<point x="553.9472045898" y="550.66796875"/>
			<point x="417.0138549805" y="459.5327148438"/>
			<point x="332.1712646484" y="460.3645019531" type="qcurve" smooth="yes"/>
			<point x="211.6802978516" y="462.8598632812"/>
			<point x="23.0014648438" y="698.4212646484"/>
		</contour>
	</outline>
</glyph>
<glyph name="C" format="2">
	<unicode hex="0043"/>
	<advance width="1724"/>
	<outline>
		<contour>
			<point x="85" y="738" type="qcurve" smooth="yes"/>
			<point x="85" y="1097.2873535156"/>
			<point x="501.7880249023" y="1512.5366210938"/>
			<point x="835.9221191406" y="1512.5366210938" type="qcurve" smooth="yes"/>
			<point x="1032.1478271484" y="1512.5366210938"/>
			<point x="1394.6868896484" y="1422.2780761719"/>
			<point x="1465.3645019531" y="1385" type="qcurve"/>
			<point x="1523.3645019531" y="1501" type="line"/>
			<point x="1626.498046875" y="1501" type="line"/>
			<point x="1626.498046875" y="1012.3669433594" type="line"/>
			<point x="1475.7649536133" y="1012.3669433594" type="line"/>
			<point x="1435.3645019531" y="1133.9689941406" type="line" smooth="yes"/>
			<point x="1394.3596191406" y="1242.0823364258"/>
			<point x="1068.4086914062" y="1373.9832763672"/>
			<point x="851.4780273438" y="1373.9832763672" type="qcurve" smooth="yes"/>
			<point x="602.9771728516" y="1373.9832763672"/>
			<point x="280.8540039062" y="1031.2442626953"/>
			<point x="279.8540039062" y="743" type="qcurve" smooth="yes"/>
			<point x="278.8540039062" y="443.8169555664"/>
			<point x="586.3132324219" y="154.6776123047"/>
			<point x="846.1235351562" y="154.6776123047" type="qcurve" smooth="yes"/>
			<point x="1098.7669677734" y="154.6776123047"/>
			<point x="1496.5955810547" y="308.6128540039"/>
			<point x="1605.0383911133" y="396.4257202148" type="qcurve"/>
			<point x="1703.15234375" y="301" type="line"/>
			<point x="1558.2624511719" y="159.4829101562"/>
			<point x="1121.3413085938" y="-19.5366210938"/>
			<point x="887.3900146484" y="-19.5366210938" type="qcurve" smooth="yes"/>
			<point x="567.9610595703" y="-19.5366210938"/>
			<point x="85" y="354.3192749023"/>
		</contour>
	</outline>
	<anchor name="bottom" x="836" y="0"/>
	<anchor name="top" x="836" y="1500"/>
</glyph>
<glyph name="D" format="2">
	<unicode hex="0044"/>
	<advance width="1622"/>
	<outline>
		<contour>
			<point x="81.9946289062" y="0" type="line"/>
			<point x="81.9946289062" y="99.9951171875" type="line"/>
			<point x="289.9970703125" y="134.9951171875" type="line"/>
			<point x="291.9970703125" y="754" type="line"/>
			<point x="289.9970703125" y="1352.0048828125" type="line"/>
			<point x="81.9946289062" y="1386.0048828125" type="line"/>
			<point x="81.9946289062" y="1500" type="line"/>
			<point x="949.1403808594" y="1500" type="line" smooth="yes"/>
			<point x="1255.3121948242" y="1502"/>
			<point x="1537.8350219727" y="1102"/>
			<point x="1537.8350219727" y="778" type="qcurve" smooth="yes"/>
			<point x="1537.8350219727" y="426"/>
			<point x="1233.3405761719" y="0"/>
			<point x="908.6756591797" y="0" type="qcurve" smooth="yes"/>
		</contour>
		<contour>
			<point x="466.1602172852" y="110.6937255859" type="line"/>
			<point x="497.2578735352" y="104.6937255859"/>
			<point x="732.8090209961" y="91.6937255859"/>
			<point x="826.9965209961" y="91.6937255859" type="qcurve" smooth="yes"/>
			<point x="1087.4028930664" y="91.6937255859"/>
			<point x="1321.5264282227" y="454.5108642578"/>
			<point x="1321.5264282227" y="748" type="qcurve" smooth="yes"/>
			<point x="1321.5264282227" y="1036.1218261719"/>
			<point x="1095.8115844727" y="1372.6162109375"/>
			<point x="792.7860717773" y="1372.6162109375" type="qcurve" smooth="yes"/>
			<point x="712.0722045898" y="1372.6162109375"/>
			<point x="499.5210571289" y="1359.6162109375"/>
			<point x="467.1602172852" y="1354.6162109375" type="qcurve"/>
			<point x="463.1602172852" y="743" type="line"/>
		</contour>
	</outline>
	<anchor name="bottom" x="686" y="0"/>
	<anchor name="center" x="438" y="754"/>
	<anchor name="top" x="686" y="1500"/>
	<anchor name="liga" x="1590" y="0"/>
</glyph>
<glyph name="F" format="2">
	<unicode hex="0046"/>
	<advance width="1377"/>
	<outline>
		<contour>
			<point x="81.9946289062" y="0" type="line"/>
			<point x="81.9946289062" y="99.9951171875" type="line"/>
			<point x="289.9970703125" y="132.9951171875" type="line"/>
			<point x="291.9970703125" y="754" type="line"/>
			<point x="289.9970703125" y="1352.0048828125" type="line"/>
			<point x="81.9946289062" y="1385.0048828125" type="line"/>
			<point x="81.9946289062" y="1500" type="line"/>
			<point x="1356.2518920898" y="1500" type="line"/>
			<point x="1356.2518920898" y="1106.3316040039" type="line"/>
			<point x="1198.2516479492" y="1106.3316040039" type="line"/>
			<point x="1149.2516479492" y="1377.3345336914" type="line"/>
			<point x="534.1602172852" y="1377.3345336914" type="line"/>
			<point x="471.1602172852" y="1353.3345336914" type="line"/>
			<point x="474.1602172852" y="760" type="line"/>
			<point x="476.1602172852" y="137.9951171875" type="line"/>
			<point x="688.1626586914" y="100.9951171875" type="line"/>
			<point x="688.1626586914" y="0" type="line"/>
		</contour>
		<contour>
			<point x="422.9786987305" y="656.8714599609" type="line"/>
			<point x="423.9786987305" y="768.6499633789" type="line"/>
			<point x="906.118347168" y="776.6499633789" type="line"/>
			<point x="943.118347168" y="973.6520385742" type="line"/>
			<point x="1081.2518920898" y="973.6520385742" type="line"/>
			<point x="1081.2518920898" y="452.8692626953" type="line"/>
			<point x="943.118347168" y="452.8692626953" type="line"/>
			<point x="905.118347168" y="648.8714599609" type="line"/>
		</contour>
	</outline>
	<anchor name="bottom" x="578" y="0"/>
	<anchor name="top" x="622" y="1500"/>
</glyph>
<glyph name="G" format="2">
	<unicode hex="0047"/>
	<advance width="1744"/>
	<outline>
		<contour>
			<point x="85" y="733" type="qcurve" smooth="yes"/>
			<point x="85" y="1106.2780761719"/>
			<point x="507.3252563477" y="1511.5366210938"/>
			<point x="878.3167114258" y="1511.5366210938" type="qcurve" smooth="yes"/>
			<point x="1051.9512329102" y="1511.5366210938"/>
			<point x="1230.8552856445" y="1435.7658691406"/>
			<point x="1310.922668457" y="1385" type="qcurve"/>
			<point x="1368.922668457" y="1502" type="line"/>
			<point x="1454.9895629883" y="1502" type="line"/>
			<point x="1454.9895629883" y="1029.3419799805" type="line"/>
			<point x="1291.0298461914" y="1029.3419799805" type="line"/>
			<point x="1254.4293823242" y="1140.7438354492" type="line" smooth="yes"/>
			<point x="1221.4293823242" y="1232.7438354492"/>
			<point x="1096.3153686523" y="1373.4627685547"/>
			<point x="846.7554321289" y="1373.4627685547" type="qcurve" smooth="yes"/>
			<point x="544.9684448242" y="1373.4627685547"/>
			<point x="272.2176513672" y="1025.1016235352"/>
			<point x="272.2176513672" y="741" type="qcurve" smooth="yes"/>
			<point x="272.2176513672" y="437.592590332"/>
			<point x="595.8638916016" y="115.3403320312"/>
			<point x="896.5321044922" y="116.3403320312" type="qcurve" smooth="yes"/>
			<point x="1065.5321655273" y="117.3403320312"/>
			<point x="1352.4681396484" y="178.0350952148"/>
			<point x="1406.1838378906" y="204.7630004883" type="qcurve"/>
			<point x="1406.1838378906" y="550.0024414062" type="line"/>
			<point x="1200.1826171875" y="580.0024414062" type="line"/>
			<point x="1200.1826171875" y="694.9975585938" type="line"/>
			<point x="1738.2221679688" y="694.9975585938" type="line"/>
			<point x="1738.2221679688" y="580.0024414062" type="line"/>
			<point x="1583.2197265625" y="550.0024414062" type="line"/>
			<point x="1583.2197265625" y="184" type="line"/>
			<point x="1453.3153686523" y="98.2292480469"/>
			<point x="1088.5069580078" y="-19.5366210938"/>
			<point x="886.5698242188" y="-19.5366210938" type="qcurve" smooth="yes"/>
			<point x="576.5759277344" y="-19.5366210938"/>
			<point x="85" y="363.4829101562"/>
		</contour>
	</outline>
	<anchor name="bottom" x="872" y="0"/>
	<anchor name="top" x="836" y="1500"/>
</glyph>
<glyph name="H" format="2">
	<unicode hex="0048"/>
	<advance width="1740"/>
	<outline>
		<contour>
			<point x="81.9946289062" y="0" type="line"/>
			<point x="81.9946289062" y="99.9951171875" type="line"/>
			<point x="289.9970703125" y="134.9951171875" type="line"/>
			<point x="291.9970703125" y="754" type="line"/>
			<point x="289.9970703125" y="1352.0048828125" type="line"/>
			<point x="81.9946289062" y="1386.0048828125" type="line"/>
			<point x="81.9946289062" y="1500" type="line"/>
			<point x="673.1626586914" y="1500" type="line"/>
			<point x="673.1626586914" y="1386.0048828125" type="line"/>
			<point x="470.1602172852" y="1352.0048828125" type="line"/>
			<point x="468.1602172852" y="754" type="line"/>
			<point x="470.1602172852" y="134.9951171875" type="line"/>
			<point x="673.1626586914" y="99.9951171875" type="line"/>
			<point x="673.1626586914" y="0" type="line"/>
		</contour>
		<contour>
			<point x="196.1602172852" y="711.6882324219" type="line"/>
			<point x="196.1602172852" y="843.6918945312" type="line"/>
			<point x="875.7642211914" y="835.6918945312" type="line"/>
			<point x="1556.1441040039" y="843.6918945312" type="line"/>
			<point x="1556.1441040039" y="711.6882324219" type="line"/>
			<point x="875.7642211914" y="711.6882324219" type="line"/>
		</contour>
		<contour>
			<point x="1067.1416625977" y="0" type="line"/>
			<point x="1067.1416625977" y="99.9951171875" type="line"/>
			<point x="1270.1441040039" y="134.9951171875" type="line"/>
			<point x="1272.1441040039" y="754" type="line"/>
			<point x="1270.1441040039" y="1352.0048828125" type="line"/>
			<point x="1067.1416625977" y="1386.0048828125" type="line"/>
			<point x="1067.1416625977" y="1500" type="line"/>
			<point x="1658.3096923828" y="1500" type="line"/>
			<point x="1658.3096923828" y="1386.0048828125" type="line"/>
			<point x="1450.3072509766" y="1352.0048828125" type="line"/>
			<point x="1448.3072509766" y="754" type="line"/>
			<point x="1450.3072509766" y="134.9951171875" type="line"/>
			<point x="1658.3096923828" y="99.9951171875" type="line"/>
			<point x="1658.3096923828" y="0" type="line"/>
		</contour>
	</outline>
	<anchor name="bottom" x="870" y="0"/>
	<anchor name="center" x="870" y="1079"/>
	<anchor name="top" x="870" y="1500"/>
	<anchor name="tonos" x="0" y="1500"/>
	<anchor name="cy_descender" x="1658" y="100"/>
</glyph>
<glyph name="M" format="2">
	<unicode hex="004D"/>
	<advance width="2041"/>
	<outline>
		<contour>
			<point x="81.9946289062" y="0" type="line"/>
			<point x="81.9946289062" y="99.9951171875" type="line"/>
			<point x="287.9970703125" y="134.9951171875" type="line"/>
			<point x="289.9970703125" y="754" type="line"/>
			<point x="287.9970703125" y="1353.0048828125" type="line"/>
			<point x="81.9946289062" y="1387.0048828125" type="line"/>
			<point x="81.9946289062" y="1500" type="line"/>
			<point x="568.9280395508" y="1500" type="line"/>
			<point x="819.4445800781" y="757.0491943359" type="line"/>
			<point x="968.4099121094" y="329.100769043" type="line"/>
			<point x="1000.9364624023" y="200.2181396484" type="line"/>
			<point x="1012.9364624023" y="200.2181396484" type="line"/>
			<point x="1050.7548217773" y="328.8089599609" type="line"/>
			<point x="1259.3466796875" y="897.4700927734" type="line"/>
			<point x="1479.8685302734" y="1500" type="line"/>
			<point x="1958.7429199219" y="1500" type="line"/>
			<point x="1958.7429199219" y="1387.0048828125" type="line"/>
			<point x="1761.7404785156" y="1353.0048828125" type="line"/>
			<point x="1759.7404785156" y="754" type="line"/>
			<point x="1761.7404785156" y="134.9951171875" type="line"/>
			<point x="1958.7429199219" y="99.9951171875" type="line"/>
			<point x="1958.7429199219" y="0" type="line"/>
			<point x="1407.7021484375" y="0" type="line"/>
			<point x="1407.7021484375" y="99.9951171875" type="line"/>
			<point x="1567.7045898438" y="134.9951171875" type="line"/>
			<point x="1570.7045898438" y="752" type="line"/>
			<point x="1567.5778808594" y="1112.0966186523" type="line"/>
			<point x="1572.5778808594" y="1314.0966186523" type="line"/>
			<point x="1560.5778808594" y="1317.0966186523" type="line"/>
			<point x="1487.705871582" y="1109.178527832" type="line"/>
			<point x="1347.8525390625" y="760.1279907227" type="line"/>
			<point x="1069.6764526367" y="-5" type="line"/>
			<point x="894.3103637695" y="-5" type="line"/>
			<point x="641.2532348633" y="675.6145629883" type="line"/>
			<point x="459.5706176758" y="1112.0155639648" type="line"/>
			<point x="407.3662719727" y="1277.9133911133" type="line"/>
			<point x="395.3662719727" y="1274.9133911133" type="line"/>
			<point x="403.3662719727" y="1114.9133911133" type="line"/>
			<point x="407.5212402344" y="754" type="line"/>
			<point x="409.5212402344" y="134.9951171875" type="line"/>
			<point x="556.5236816406" y="99.9951171875" type="line"/>
			<point x="556.5236816406" y="0" type="line"/>
		</contour>
	</outline>
	<anchor name="bottom" x="1025" y="0"/>
	<anchor name="top" x="1058" y="1500"/>
</glyph>
<glyph name="P" format="2">
	<unicode hex="0050"/>
	<advance width="1367"/>
	<outline>
		<contour>
			<point x="81.9946289062" y="0" type="line"/>
			<point x="81.9946289062" y="99.9951171875" type="line"/>
			<point x="289.9970703125" y="134.9951171875" type="line"/>
			<point x="291.9970703125" y="754" type="line"/>
			<point x="289.9970703125" y="1352.0048828125" type="line"/>
			<point x="81.9946289062" y="1386.0048828125" type="line"/>
			<point x="81.9946289062" y="1500" type="line"/>
			<point x="843.338684082" y="1500" type="line" smooth="yes"/>
			<point x="994.4071044922" y="1500"/>
			<point x="1328.1228027344" y="1274"/>
			<point x="1328.1228027344" y="1037" type="qcurve" smooth="yes"/>
			<point x="1328.1228027344" y="777"/>
			<point x="931.4448242188" y="549.6043701172"/>
			<point x="717.266784668" y="549.6043701172" type="qcurve" smooth="yes"/>
			<point x="670.7399902344" y="549.6043701172"/>
			<point x="466.2202758789" y="562.6043701172"/>
			<point x="382.4234008789" y="578.6043701172" type="qcurve"/>
			<point x="391.1602172852" y="695.752746582" type="line"/>
			<point x="442.0698852539" y="686.7903442383"/>
			<point x="625.1170654297" y="676.7903442383"/>
			<point x="692.1170654297" y="676.7903442383" type="qcurve" smooth="yes"/>
			<point x="874.7131347656" y="676.7903442383"/>
			<point x="1106.6323852539" y="861.0003051758"/>
			<point x="1103.6323852539" y="1017" type="qcurve" smooth="yes"/>
			<point x="1099.6323852539" y="1175.6118774414"/>
			<point x="904.7579345703" y="1361.109375"/>
			<point x="769.5191650391" y="1361.109375" type="qcurve" smooth="yes"/>
			<point x="487.1602172852" y="1361.109375" type="line"/>
			<point x="466.1602172852" y="1344.109375" type="line"/>
			<point x="462.1602172852" y="764" type="line"/>
			<point x="464.1602172852" y="137.9951171875" type="line"/>
			<point x="694.1626586914" y="99.9951171875" type="line"/>
			<point x="694.1626586914" y="0" type="line"/>
		</contour>
	</outline>
	<anchor name="bottom" x="634" y="0"/>
	<anchor name="top" x="634" y="1500"/>
</glyph>
<glyph name="T" format="2">
	<unicode hex="0054"/>
	<advance width="1531"/>
	<outline>
		<contour>
			<point x="85.1984863281" y="1054.8656005859" type="line"/>
			<point x="85.1984863281" y="1500" type="line"/>
			<point x="1452.8177490234" y="1500" type="line"/>
			<point x="1452.8177490234" y="1054.8656005859" type="line"/>
			<point x="1342.8175048828" y="1054.8656005859" type="line"/>
			<point x="1306.8153076172" y="1383.8696289062" type="line"/>
			<point x="872.1661987305" y="1383.8696289062" type="line"/>
			<point x="854.1661987305" y="1367.8696289062" type="line"/>
			<point x="854.1661987305" y="779.6326293945" type="line"/>
			<point x="856.1661987305" y="134.9951171875" type="line"/>
			<point x="1076.1686401367" y="99.9951171875" type="line"/>
			<point x="1076.1686401367" y="0" type="line"/>
			<point x="462.0006103516" y="0" type="line"/>
			<point x="462.0006103516" y="99.9951171875" type="line"/>
			<point x="680.0030517578" y="134.9951171875" type="line"/>
			<point x="683.0030517578" y="779.6326293945" type="line"/>
			<point x="683.0030517578" y="1367.8696289062" type="line"/>
			<point x="667.0030517578" y="1383.8696289062" type="line"/>
			<point x="230.2009277344" y="1383.8696289062" type="line"/>
			<point x="194.1987304688" y="1054.8656005859" type="line"/>
		</contour>
	</outline>
	<anchor name="bottom" x="644" y="0"/>
	<anchor name="center" x="644" y="750"/>
	<anchor name="top" x="644" y="1500"/>
	<anchor name="cy_descender" x="951" y="100"/>
</glyph>
<glyph name="U" format="2">
	<unicode hex="0055"/>
	<advance width="1834"/>
	<outline>
		<contour>
			<point x="68.4948730469" y="1387.0048828125" type="line"/>
			<point x="68.4948730469" y="1500" type="line"/>
			<point x="639.4083251953" y="1500" type="line"/>
			<point x="639.4083251953" y="1387.0048828125" type="line"/>
			<point x="443.4058837891" y="1353.0048828125" type="line"/>
			<point x="439.4058837891" y="861.744140625" type="line"/>
			<point x="441.4058837891" y="651.0132446289" type="line" smooth="yes"/>
			<point x="443.5185546875" y="409.9937133789"/>
			<point x="640.6054077148" y="106.0746459961"/>
			<point x="930.1546020508" y="106.0746459961" type="qcurve" smooth="yes"/>
			<point x="1218.7514038086" y="106.0746459961"/>
			<point x="1419.8087158203" y="409.9937133789"/>
			<point x="1426.1131591797" y="665.0132446289" type="qcurve" smooth="yes"/>
			<point x="1426.0379638672" y="861.744140625" type="line"/>
			<point x="1424.1131591797" y="1352.0048828125" type="line"/>
			<point x="1192.1107177734" y="1387.0048828125" type="line"/>
			<point x="1192.1107177734" y="1500" type="line"/>
			<point x="1776.8084106445" y="1500" type="line"/>
			<point x="1776.8084106445" y="1387.0048828125" type="line"/>
			<point x="1567.8059692383" y="1353.0048828125" type="line"/>
			<point x="1565.8059692383" y="861.744140625" type="line"/>
			<point x="1566.6510009766" y="660.5180664062" type="line" smooth="yes"/>
			<point x="1567.3456420898" y="363.8967285156"/>
			<point x="1328.4496459961" y="-18.5366210938"/>
			<point x="900.0693359375" y="-18.5366210938" type="qcurve" smooth="yes"/>
			<point x="551.0179443359" y="-18.5366210938"/>
			<point x="267.5725097656" y="301.4975585938"/>
			<point x="267.4973144531" y="628.5932617188" type="qcurve" smooth="yes"/>
			<point x="266.660949707" y="861.744140625" type="line"/>
			<point x="267.4973144531" y="1353.0048828125" type="line"/>
		</contour>
	</outline>
	<anchor name="bottom" x="832" y="0"/>
	<anchor name="ogonek" x="1042" y="0"/>
	<anchor name="top" x="832" y="1500"/>
	<anchor name="topright" x="1590" y="1500"/>
</glyph>
<glyph name="X" format="2">
	<unicode hex="0058"/>
	<advance width="1469"/>
	<outline>
		<contour>
			<point x="-22.6672363281" y="0" type="line"/>
			<point x="-22.6672363281" y="99.9951171875" type="line"/>
			<point x="183.3366699219" y="133.9951171875" type="line"/>
			<point x="609.0509643555" y="821.8440551758" type="line"/>
			<point x="274.8612060547" y="1353.0048828125" type="line"/>
			<point x="64.8575439453" y="1387.0048828125" type="line"/>
			<point x="64.8575439453" y="1500" type="line"/>
			<point x="638.9566650391" y="1500" type="line"/>
			<point x="638.9566650391" y="1387.0048828125" type="line"/>
			<point x="497.9515380859" y="1353.0048828125" type="line"/>
			<point x="636.6963500977" y="1097.4869995117" type="line"/>
			<point x="729.9633178711" y="957.0494995117" type="line"/>
			<point x="741.9633178711" y="957.0494995117" type="line"/>
			<point x="837.1546630859" y="1114.6889648438" type="line"/>
			<point x="935.8410644531" y="1353.0048828125" type="line"/>
			<point x="787.8361816406" y="1387.0048828125" type="line"/>
			<point x="787.8361816406" y="1500" type="line"/>
			<point x="1367.5669555664" y="1500" type="line"/>
			<point x="1367.5669555664" y="1387.0048828125" type="line"/>
			<point x="1153.5630493164" y="1353.0048828125" type="line"/>
			<point x="859.3765869141" y="827.8986206055" type="line"/>
			<point x="1293.7769775391" y="133.9951171875" type="line"/>
			<point x="1483.7806396484" y="99.9951171875" type="line"/>
			<point x="1483.7806396484" y="0" type="line"/>
			<point x="878.0269775391" y="0" type="line"/>
			<point x="878.0269775391" y="99.9951171875" type="line"/>
			<point x="1054.0321044922" y="133.9951171875" type="line"/>
			<point x="798.2509155273" y="564.3765869141" type="line"/>
			<point x="718.9512329102" y="695.9450073242" type="line"/>
			<point x="706.9512329102" y="695.9450073242" type="line"/>
			<point x="617.9588623047" y="553.1065673828" type="line"/>
			<point x="427.0586547852" y="138.9951171875" type="line"/>
			<point x="639.0635375977" y="99.9951171875" type="line"/>
			<point x="639.0635375977" y="0" type="line"/>
		</contour>
	</outline>
	<anchor name="bottom" x="661" y="0"/>
	<anchor name="top" x="673" y="1500"/>
	<anchor name="cy_descender" x="1386" y="100"/>
	<anchor name="center" x="663" y="811"/>
</glyph>
<glyph name="f" format="2">
	<unicode hex="0066"/>
	<advance width="665"/>
	<outline>
		<contour>
			<point x="46.8924560547" y="0" type="line"/>
			<point x="46.8924560547" y="81" type="line"/>
			<point x="235.8924560547" y="116" type="line"/>
			<point x="240.8924560547" y="571.0966796875" type="line"/>
			<point x="243.8924560547" y="817.1870117188" type="line"/>
			<point x="26.3133544922" y="835.1870117188" type="line"/>
			<point x="26.3133544922" y="917.7275390625" type="line"/>
			<point x="243.8924560547" y="963.7275390625" type="line"/>
			<point x="247.3477172852" y="1330.7694702148" type="line" smooth="yes"/>
			<point x="248.6012573242" y="1401.2395629883"/>
			<point x="410.2493286133" y="1523.2780761719"/>
			<point x="498.5096435547" y="1523.2780761719" type="qcurve" smooth="yes"/>
			<point x="574.3489379883" y="1523.2780761719"/>
			<point x="618.7170410156" y="1494.7973632812"/>
			<point x="621.9880371094" y="1506.9078979492" type="qcurve" smooth="yes"/>
			<point x="626.7827148438" y="1505.2780761719" type="line"/>
			<point x="592.0064086914" y="1369.7780761719" type="line"/>
			<point x="600.7458496094" y="1363.7780761719" type="line" smooth="yes"/>
			<point x="599.7537231445" y="1359.7780761719"/>
			<point x="548.4115600586" y="1375.2780761719"/>
			<point x="497.4194335938" y="1376.2780761719" type="qcurve" smooth="yes"/>
			<point x="437.3167114258" y="1377.2780761719"/>
			<point x="365.6678466797" y="1309.5332641602"/>
			<point x="368.5718994141" y="1268.3041992188" type="qcurve" smooth="yes"/>
			<point x="370.5718994141" y="964.7275390625" type="line"/>
			<point x="638.0064086914" y="964.7275390625" type="line"/>
			<point x="638.0064086914" y="831.1870117188" type="line"/>
			<point x="376.5718994141" y="831.1870117188" type="line"/>
			<point x="373.5718994141" y="571.0966796875" type="line"/>
			<point x="376.5718994141" y="116" type="line"/>
			<point x="602.0718994141" y="81" type="line"/>
			<point x="602.0718994141" y="0" type="line"/>
		</contour>
	</outline>
	<anchor name="bottom" x="314" y="0"/>
	<anchor name="top" x="314" y="1536"/>
</glyph>
<glyph name="m" format="2">
	<unicode hex="006D"/>
	<advance width="1881"/>
	<outline>
		<contour>
			<point x="76.4556884766" y="0" type="line"/>
			<point x="76.4556884766" y="81" type="line"/>
			<point x="224.4556884766" y="116" type="line"/>
			<point x="226.4556884766" y="577" type="line"/>
			<point x="224.4556884766" y="851.4145507812" type="line"/>
			<point x="66.4556884766" y="881.4145507812" type="line"/>
			<point x="66.4556884766" y="973.4145507812" type="line"/>
			<point x="205.5913696289" y="1008.4389648438" type="line"/>
			<point x="325.5913696289" y="951.4389648438" type="line"/>
			<point x="348.5913696289" y="786.8354492188" type="line"/>
			<point x="415.1282348633" y="873.4381713867"/>
			<point x="607.7193603516" y="1017.6975097656"/>
			<point x="757.0491943359" y="1017.6975097656" type="qcurve" smooth="yes"/>
			<point x="882.3607177734" y="1017.6975097656"/>
			<point x="1022.9719848633" y="911.2737426758"/>
			<point x="1032.3316040039" y="815.4833984375" type="qcurve"/>
			<point x="1073.1439208984" y="870.802734375"/>
			<point x="1266.4771728516" y="1015.6975097656"/>
			<point x="1382.6490478516" y="1015.6975097656" type="qcurve" smooth="yes"/>
			<point x="1536.3674316406" y="1015.6975097656"/>
			<point x="1681.3050537109" y="835.8263549805"/>
			<point x="1681.3050537109" y="669.4605712891" type="qcurve" smooth="yes"/>
			<point x="1680.3050537109" y="650.7481689453"/>
			<point x="1682.7655639648" y="597.0126953125"/>
			<point x="1682.1752319336" y="586" type="qcurve" smooth="yes"/>
			<point x="1682.1752319336" y="115" type="line"/>
			<point x="1854.1752319336" y="81" type="line"/>
			<point x="1854.1752319336" y="0" type="line"/>
			<point x="1397.3904418945" y="0" type="line"/>
			<point x="1397.3904418945" y="81" type="line"/>
			<point x="1511.3904418945" y="116" type="line"/>
			<point x="1516.3904418945" y="535" type="line"/>
			<point x="1516.3904418945" y="692.0609130859" type="line" smooth="yes"/>
			<point x="1516.3904418945" y="792.4689331055"/>
			<point x="1417.4219360352" y="886.6242675781"/>
			<point x="1362.516418457" y="886.6242675781" type="qcurve" smooth="yes"/>
			<point x="1270.0671386719" y="886.6242675781"/>
			<point x="1072.8395385742" y="759.0354614258"/>
			<point x="1034.0578613281" y="713.2380371094" type="qcurve"/>
			<point x="1034.0578613281" y="715.1159667969"/>
			<point x="1034.9280395508" y="559.5563964844"/>
			<point x="1034.0578613281" y="548" type="qcurve" smooth="yes"/>
			<point x="1034.0578613281" y="116" type="line"/>
			<point x="1187.0578613281" y="81" type="line"/>
			<point x="1187.0578613281" y="0" type="line"/>
			<point x="753.5327148438" y="0" type="line"/>
			<point x="753.5327148438" y="81" type="line"/>
			<point x="867.5327148438" y="116" type="line"/>
			<point x="871.5327148438" y="577" type="line"/>
			<point x="871.5327148438" y="725.0609130859" type="line" smooth="yes"/>
			<point x="871.5327148438" y="808.4689331055"/>
			<point x="784.7431640625" y="889.6242675781"/>
			<point x="721.9271240234" y="889.6242675781" type="qcurve" smooth="yes"/>
			<point x="661.7216796875" y="889.6242675781"/>
			<point x="426.4546508789" y="758.0354614258"/>
			<point x="392.5913696289" y="714.2380371094" type="qcurve"/>
			<point x="392.5913696289" y="577" type="line"/>
			<point x="394.5913696289" y="116" type="line"/>
			<point x="508.5913696289" y="81" type="line"/>
			<point x="508.5913696289" y="0" type="line"/>
		</contour>
	</outline>
	<anchor name="bottom" x="958" y="0"/>
	<anchor name="top" x="958" y="1000"/>
</glyph>
<glyph name="n" format="2">
	<unicode hex="006E"/>
	<advance width="1263"/>
	<outline>
		<contour>
			<point x="76.4556884766" y="0" type="line"/>
			<point x="76.4556884766" y="81" type="line"/>
			<point x="224.4556884766" y="116" type="line"/>
			<point x="226.4556884766" y="581.0966796875" type="line"/>
			<point x="224.4556884766" y="851.4145507812" type="line"/>
			<point x="66.4556884766" y="881.4145507812" type="line"/>
			<point x="66.4556884766" y="973.4145507812" type="line"/>
			<point x="206.4229736328" y="1009.4389648438" type="line"/>
			<point x="330.4229736328" y="959.4389648438" type="line"/>
			<point x="361.1633300781" y="811.8662109375" type="line"/>
			<point x="420.7501831055" y="894.6056518555"/>
			<point x="632.7439575195" y="1016.6975097656"/>
			<point x="760.6062011719" y="1016.6975097656" type="qcurve" smooth="yes"/>
			<point x="912.4763183594" y="1016.6975097656"/>
			<point x="1061.3736572266" y="850.4983520508"/>
			<point x="1061.3736572266" y="696.007019043" type="qcurve" smooth="yes"/>
			<point x="1061.3736572266" y="665.542175293"/>
			<point x="1056.9631347656" y="588.9343261719"/>
			<point x="1056.4631347656" y="573.3796386719" type="qcurve" smooth="yes"/>
			<point x="1056.4631347656" y="115" type="line"/>
			<point x="1226.4631347656" y="81" type="line"/>
			<point x="1226.4631347656" y="0" type="line"/>
			<point x="745.4572753906" y="0" type="line"/>
			<point x="745.4572753906" y="81" type="line"/>
			<point x="879.4572753906" y="116" type="line"/>
			<point x="885.4572753906" y="600.8391113281" type="line"/>
			<point x="885.4572753906" y="688.5350952148" type="line" smooth="yes"/>
			<point x="885.4572753906" y="794.2037963867"/>
			<point x="787.7070922852" y="885.4612426758"/>
			<point x="722.0621337891" y="885.4612426758" type="qcurve" smooth="yes"/>
			<point x="590.7654418945" y="885.4612426758"/>
			<point x="425.8651123047" y="779.16015625"/>
			<point x="393.4615478516" y="729.4230957031" type="qcurve"/>
			<point x="391.4615478516" y="607.5561523438" type="line"/>
			<point x="394.4615478516" y="116" type="line"/>
			<point x="561.4615478516" y="81" type="line"/>
			<point x="561.4615478516" y="0" type="line"/>
		</contour>
	</outline>
	<anchor name="bottom" x="632" y="0"/>
	<anchor name="top" x="632" y="1000"/>
	<anchor name="liga" x="1264" y="0"/>
</glyph>
<glyph name="v" format="2">
	<unicode hex="0076"/>
	<advance width="976"/>
	<outline>
		<contour>
			<point x="-37.428894043" y="909.82421875" type="line"/>
			<point x="-37.428894043" y="1000.82421875" type="line"/>
			<point x="441.346496582" y="1000.82421875" type="line"/>
			<point x="441.346496582" y="919.82421875" type="line"/>
			<point x="270.346496582" y="883.82421875" type="line"/>
			<point x="432.0556640625" y="405.9494018555" type="line"/>
			<point x="464.3456420898" y="207.9159545898" type="line"/>
			<point x="475.9684448242" y="101.1784057617" type="line"/>
			<point x="487.9684448242" y="101.1784057617" type="line"/>
			<point x="500.0941772461" y="205.6644897461" type="line"/>
			<point x="601.8756713867" y="506.0241088867" type="line"/>
			<point x="726.0422973633" y="884.82421875" type="line"/>
			<point x="596.0422973633" y="919.82421875" type="line"/>
			<point x="596.0422973633" y="1000.82421875" type="line"/>
			<point x="1033.1815795898" y="1000.82421875" type="line"/>
			<point x="1033.1815795898" y="909.82421875" type="line"/>
			<point x="890.1815795898" y="874.82421875" type="line"/>
			<point x="736.0893554688" y="457.6856689453" type="line"/>
			<point x="590.4824829102" y="4.9755859375" type="line"/>
			<point x="400.0037231445" y="4.9755859375" type="line"/>
			<point x="318.5070800781" y="356.9777832031" type="line"/>
			<point x="108.571105957" y="874.82421875" type="line"/>
		</contour>
	</outline>
	<anchor name="bottom" x="513" y="0"/>
	<anchor name="top" x="513" y="1000"/>
</glyph>
<glyph name="z" format="2">
	<unicode hex="007A"/>
	<advance width="852"/>
	<outline>
		<contour>
			<point x="91.0112915039" y="0" type="line"/>
			<point x="91.0112915039" y="119.9575195312" type="line"/>
			<point x="616.9313964844" y="880.6568603516" type="line"/>
			<point x="189.991394043" y="880.6568603516" type="line"/>
			<point x="147.991394043" y="695.7742919922" type="line"/>
			<point x="74.1129150391" y="695.7742919922" type="line"/>
			<point x="74.1129150391" y="1000.82421875" type="line"/>
			<point x="756.8765258789" y="1000.82421875" type="line"/>
			<point x="756.8765258789" y="881.8666992188" type="line"/>
			<point x="253.771484375" y="113.1673583984" type="line"/>
			<point x="718.0333251953" y="113.1673583984" type="line"/>
			<point x="760.0333251953" y="295.0499267578" type="line"/>
			<point x="832.8286743164" y="295.0499267578" type="line"/>
			<point x="832.8286743164" y="0" type="line"/>
		</contour>
	</outline>
	<anchor name="bottom" x="443" y="0"/>
	<anchor name="top" x="443" y="1000"/>
	<anchor name="_liga" x="0" y="0"/>
</glyph>
<glyph name="idotless" format="2">
	<unicode hex="0131"/>
	<advance width="634"/>
	<outline>
		<contour>
			<point x="72.5413818359" y="0" type="line"/>
			<point x="72.5413818359" y="81" type="line"/>
			<point x="247.5413818359" y="116" type="line"/>
			<point x="249.5413818359" y="571.0966796875" type="line"/>
			<point x="245.5413818359" y="850.82421875" type="line"/>
			<point x="72.5413818359" y="880.82421875" type="line"/>
			<point x="72.5413818359" y="971.82421875" type="line"/>
			<point x="301.5472412109" y="997.8486328125" type="line"/>
			<point x="379.5472412109" y="997.8486328125" type="line"/>
			<point x="422.5472412109" y="948.8486328125" type="line"/>
			<point x="415.5472412109" y="571.0966796875" type="line"/>
			<point x="417.5472412109" y="116" type="line"/>
			<point x="603.5472412109" y="81" type="line"/>
			<point x="603.5472412109" y="0" type="line"/>
		</contour>
	</outline>
	<anchor name="bottom" x="320" y="0"/>
	<anchor name="top" x="320" y="1000"/>
	<anchor name="ogonek" x="513" y="0"/>
	<anchor name="liga" x="639" y="0"/>
</glyph>
